# cercle
v -2.21875 0.0625 0.125
v -2.28125 0.0625 0.125
v -2.28125 -0.1875 0.125
v -2.21875 -0.1875 0.125
v -2.28125 0.0625 -0.125
v -2.21875 0.0625 -0.125
v -2.21875 -0.1875 -0.125
v -2.28125 -0.1875 -0.125
v -2.21875 0.0625 -0.125
v -2.21875 0.0625 0.125
v -2.21875 -0.1875 0.125
v -2.21875 -0.1875 -0.125
v -2.21875 -0.1875 0.125
v -2.28125 -0.1875 0.125
v -2.28125 -0.1875 -0.125
v -2.21875 -0.1875 -0.125
v -2.28125 0.0625 0.125
v -2.28125 0.0625 -0.125
v -2.28125 -0.1875 -0.125
v -2.28125 -0.1875 0.125
v -2.21875 0.0625 -0.125
v -2.28125 0.0625 -0.125
v -2.28125 0.0625 0.125
v -2.21875 0.0625 0.125
vn 0 0 1
vn 0 0 1
vn 0 0 1
vn 0 0 1
vn 0 0 -1
vn 0 0 -1
vn 0 0 -1
vn 0 0 -1
vn 1 0 0
vn 1 0 0
vn 1 0 0
vn 1 0 0
vn 0 -1 0
vn 0 -1 0
vn 0 -1 0
vn 0 -1 0
vn -1 0 0
vn -1 0 0
vn -1 0 0
vn -1 0 0
vn 0 1 0
vn 0 1 0
vn 0 1 0
vn 0 1 0
vt 0.1015625 0.4296875
vt 0.09375 0.4296875
vt 0.09375 0.3984375
vt 0.1015625 0.3984375
vt 0.1015625 0.4296875
vt 0.09375 0.4296875
vt 0.09375 0.3984375
vt 0.1015625 0.3984375
vt 0.09375 0.4296875
vt 0.0625 0.4296875
vt 0.0625 0.3984375
vt 0.09375 0.3984375
vt 0.109375 0.4296875
vt 0.1015625 0.4296875
vt 0.1015625 0.3984375
vt 0.109375 0.3984375
vt 0.09375 0.4296875
vt 0.0625 0.4296875
vt 0.0625 0.3984375
vt 0.09375 0.3984375
vt 0.109375 0.4296875
vt 0.1015625 0.4296875
vt 0.1015625 0.3984375
vt 0.109375 0.3984375
f 1/1/1 3/3/3 4/4/4
f 1/1/1 2/2/2 3/3/3
f 5/5/5 7/7/7 8/8/8
f 5/5/5 6/6/6 7/7/7
f 9/9/9 11/11/11 12/12/12
f 9/9/9 10/10/10 11/11/11
f 13/13/13 15/15/15 16/16/16
f 13/13/13 14/14/14 15/15/15
f 17/17/17 19/19/19 20/20/20
f 17/17/17 18/18/18 19/19/19
f 21/21/21 23/23/23 24/24/24
f 21/21/21 22/22/22 23/23/23

# pale
v -2.221875 0.04993988 -0.0072516
v -2.278125 0.04993988 -0.0072516
v -2.278125 -0.1124399 -0.1010016
v -2.221875 -0.1124399 -0.1010016
v -2.278125 0.4561899 -0.7108972
v -2.221875 0.4561899 -0.7108972
v -2.221875 0.2938101 -0.8046472
v -2.278125 0.2938101 -0.8046472
v -2.221875 0.4561899 -0.7108972
v -2.221875 0.04993988 -0.0072516
v -2.221875 -0.1124399 -0.1010016
v -2.221875 0.2938101 -0.8046472
v -2.221875 -0.1124399 -0.1010016
v -2.278125 -0.1124399 -0.1010016
v -2.278125 0.2938101 -0.8046472
v -2.221875 0.2938101 -0.8046472
v -2.278125 0.04993988 -0.0072516
v -2.278125 0.4561899 -0.7108972
v -2.278125 0.2938101 -0.8046472
v -2.278125 -0.1124399 -0.1010016
v -2.221875 0.4561899 -0.7108972
v -2.278125 0.4561899 -0.7108972
v -2.278125 0.04993988 -0.0072516
v -2.221875 0.04993988 -0.0072516
vn 0 -0.5 0.8660254
vn 0 -0.5 0.8660254
vn 0 -0.5 0.8660254
vn 0 -0.5 0.8660254
vn 0 0.5 -0.8660254
vn 0 0.5 -0.8660254
vn 0 0.5 -0.8660254
vn 0 0.5 -0.8660254
vn 1 0 0
vn 1 0 0
vn 1 0 0
vn 1 0 0
vn 0 -0.8660254 -0.5
vn 0 -0.8660254 -0.5
vn 0 -0.8660254 -0.5
vn 0 -0.8660254 -0.5
vn -1 0 0
vn -1 0 0
vn -1 0 0
vn -1 0 0
vn 0 0.8660254 0.5
vn 0 0.8660254 0.5
vn 0 0.8660254 0.5
vn 0 0.8660254 0.5
vt 0.109375 0.3828125
vt 0.1015625 0.3828125
vt 0.1015625 0.359375
vt 0.109375 0.359375
vt 0.109375 0.3828125
vt 0.1015625 0.3828125
vt 0.1015625 0.359375
vt 0.109375 0.359375
vt 0 0.3828125
vt 0.1015625 0.3828125
vt 0.1015625 0.359375
vt 0 0.359375
vt 0.1015625 0.3515625
vt 0.1015625 0.359375
vt 0 0.359375
vt 0 0.3515625
vt 0.1015625 0.3828125
vt 0 0.3828125
vt 0 0.359375
vt 0.1015625 0.359375
vt 0 0.3515625
vt 0 0.359375
vt 0.1015625 0.359375
vt 0.1015625 0.3515625
f 25/25/25 27/27/27 28/28/28
f 25/25/25 26/26/26 27/27/27
f 29/29/29 31/31/31 32/32/32
f 29/29/29 30/30/30 31/31/31
f 33/33/33 35/35/35 36/36/36
f 33/33/33 34/34/34 35/35/35
f 37/37/37 39/39/39 40/40/40
f 37/37/37 38/38/38 39/39/39
f 41/41/41 43/43/43 44/44/44
f 41/41/41 42/42/42 43/43/43
f 45/45/45 47/47/47 48/48/48
f 45/45/45 46/46/46 47/47/47

# pale
v -2.221875 -0.1875 -0.09375
v -2.278125 -0.1875 -0.09375
v -2.278125 -0.1875 0.09374999
v -2.221875 -0.1875 0.09374999
v -2.278125 -0.9375 -0.09375002
v -2.221875 -0.9375 -0.09375002
v -2.221875 -0.9375 0.09374996
v -2.278125 -0.9375 0.09374996
v -2.221875 -0.9375 -0.09375002
v -2.221875 -0.1875 -0.09375
v -2.221875 -0.1875 0.09374999
v -2.221875 -0.9375 0.09374996
v -2.221875 -0.1875 0.09374999
v -2.278125 -0.1875 0.09374999
v -2.278125 -0.9375 0.09374996
v -2.221875 -0.9375 0.09374996
v -2.278125 -0.1875 -0.09375
v -2.278125 -0.9375 -0.09375002
v -2.278125 -0.9375 0.09374996
v -2.278125 -0.1875 0.09374999
v -2.221875 -0.9375 -0.09375002
v -2.278125 -0.9375 -0.09375002
v -2.278125 -0.1875 -0.09375
v -2.221875 -0.1875 -0.09375
vn 0 1 3.422855E-08
vn 0 1 3.422855E-08
vn 0 1 3.422855E-08
vn 0 1 3.422855E-08
vn 0 -1 -3.422855E-08
vn 0 -1 -3.422855E-08
vn 0 -1 -3.422855E-08
vn 0 -1 -3.422855E-08
vn 1 0 0
vn 1 0 0
vn 1 0 0
vn 1 0 0
vn 0 -3.422855E-08 1
vn 0 -3.422855E-08 1
vn 0 -3.422855E-08 1
vn 0 -3.422855E-08 1
vn -1 0 0
vn -1 0 0
vn -1 0 0
vn -1 0 0
vn 0 3.422855E-08 -1
vn 0 3.422855E-08 -1
vn 0 3.422855E-08 -1
vn 0 3.422855E-08 -1
vt 0.109375 0.3828125
vt 0.1015625 0.3828125
vt 0.1015625 0.359375
vt 0.109375 0.359375
vt 0.109375 0.3828125
vt 0.1015625 0.3828125
vt 0.1015625 0.359375
vt 0.109375 0.359375
vt 0 0.3828125
vt 0.09375 0.3828125
vt 0.09375 0.359375
vt 0 0.359375
vt 0.09375 0.3515625
vt 0.09375 0.359375
vt 0 0.359375
vt 0 0.3515625
vt 0.09375 0.3828125
vt 0 0.3828125
vt 0 0.359375
vt 0.09375 0.359375
vt 0 0.3515625
vt 0 0.359375
vt 0.09375 0.359375
vt 0.09375 0.3515625
f 49/49/49 51/51/51 52/52/52
f 49/49/49 50/50/50 51/51/51
f 53/53/53 55/55/55 56/56/56
f 53/53/53 54/54/54 55/55/55
f 57/57/57 59/59/59 60/60/60
f 57/57/57 58/58/58 59/59/59
f 61/61/61 63/63/63 64/64/64
f 61/61/61 62/62/62 63/63/63
f 65/65/65 67/67/67 68/68/68
f 65/65/65 66/66/66 67/67/67
f 69/69/69 71/71/71 72/72/72
f 69/69/69 70/70/70 71/71/71

# pale
v -2.221875 -0.1124399 0.1010016
v -2.278125 -0.1124399 0.1010016
v -2.278125 0.04993987 0.007251593
v -2.221875 0.04993988 0.007251596
v -2.278125 0.2938101 0.8046471
v -2.221875 0.2938101 0.8046471
v -2.221875 0.4561899 0.7108971
v -2.278125 0.4561899 0.7108971
v -2.221875 0.2938101 0.8046471
v -2.221875 -0.1124399 0.1010016
v -2.221875 0.04993988 0.007251596
v -2.221875 0.4561899 0.7108971
v -2.221875 0.04993988 0.007251596
v -2.278125 0.04993987 0.007251593
v -2.278125 0.4561899 0.7108971
v -2.221875 0.4561899 0.7108971
v -2.278125 -0.1124399 0.1010016
v -2.278125 0.2938101 0.8046471
v -2.278125 0.4561899 0.7108971
v -2.278125 0.04993987 0.007251593
v -2.221875 0.2938101 0.8046471
v -2.278125 0.2938101 0.8046471
v -2.278125 -0.1124399 0.1010016
v -2.221875 -0.1124399 0.1010016
vn 7.571035E-08 -0.5000001 -0.8660254
vn 7.571035E-08 -0.5000001 -0.8660254
vn 7.571035E-08 -0.5000001 -0.8660254
vn 7.571035E-08 -0.5000001 -0.8660254
vn -7.571035E-08 0.5000001 0.8660254
vn -7.571035E-08 0.5000001 0.8660254
vn -7.571035E-08 0.5000001 0.8660254
vn -7.571035E-08 0.5000001 0.8660254
vn 1 7.571035E-08 4.371139E-08
vn 1 7.571035E-08 4.371139E-08
vn 1 7.571035E-08 4.371139E-08
vn 1 7.571035E-08 4.371139E-08
vn -4.371139E-08 0.8660254 -0.5000001
vn -4.371139E-08 0.8660254 -0.5000001
vn -4.371139E-08 0.8660254 -0.5000001
vn -4.371139E-08 0.8660254 -0.5000001
vn -1 -7.571035E-08 -4.371139E-08
vn -1 -7.571035E-08 -4.371139E-08
vn -1 -7.571035E-08 -4.371139E-08
vn -1 -7.571035E-08 -4.371139E-08
vn 4.371139E-08 -0.8660254 0.5000001
vn 4.371139E-08 -0.8660254 0.5000001
vn 4.371139E-08 -0.8660254 0.5000001
vn 4.371139E-08 -0.8660254 0.5000001
vt 0.109375 0.3828125
vt 0.1015625 0.3828125
vt 0.1015625 0.359375
vt 0.109375 0.359375
vt 0.109375 0.3828125
vt 0.1015625 0.3828125
vt 0.1015625 0.359375
vt 0.109375 0.359375
vt 0 0.3828125
vt 0.1015625 0.3828125
vt 0.1015625 0.359375
vt 0 0.359375
vt 0.1015625 0.3515625
vt 0.1015625 0.359375
vt 0 0.359375
vt 0 0.3515625
vt 0.1015625 0.3828125
vt 0 0.3828125
vt 0 0.359375
vt 0.1015625 0.359375
vt 0 0.3515625
vt 0 0.359375
vt 0.1015625 0.359375
vt 0.1015625 0.3515625
f 73/73/73 75/75/75 76/76/76
f 73/73/73 74/74/74 75/75/75
f 77/77/77 79/79/79 80/80/80
f 77/77/77 78/78/78 79/79/79
f 81/81/81 83/83/83 84/84/84
f 81/81/81 82/82/82 83/83/83
f 85/85/85 87/87/87 88/88/88
f 85/85/85 86/86/86 87/87/87
f 89/89/89 91/91/91 92/92/92
f 89/89/89 90/90/90 91/91/91
f 93/93/93 95/95/95 96/96/96
f 93/93/93 94/94/94 95/95/95

