# Block
v -0.2026822 -0.125922 0.78125
v -0.3095635 0.167732 0.78125
v -0.3154365 0.1655944 0.78125
v -0.2085553 -0.1280596 0.78125
v -0.3095635 0.167732 -0.78125
v -0.2026822 -0.125922 -0.78125
v -0.2085553 -0.1280596 -0.78125
v -0.3154365 0.1655944 -0.78125
v -0.2026822 -0.125922 -0.78125
v -0.2026822 -0.125922 0.78125
v -0.2085553 -0.1280596 0.78125
v -0.2085553 -0.1280596 -0.78125
v -0.2085553 -0.1280596 0.78125
v -0.3154365 0.1655944 0.78125
v -0.3154365 0.1655944 -0.78125
v -0.2085553 -0.1280596 -0.78125
v -0.3095635 0.167732 0.78125
v -0.3095635 0.167732 -0.78125
v -0.3154365 0.1655944 -0.78125
v -0.3154365 0.1655944 0.78125
v -0.2026822 -0.125922 -0.78125
v -0.3095635 0.167732 -0.78125
v -0.3095635 0.167732 0.78125
v -0.2026822 -0.125922 0.78125
vn 0 0 1
vn 0 0 1
vn 0 0 1
vn 0 0 1
vn 0 0 -1
vn 0 0 -1
vn 0 0 -1
vn 0 0 -1
vn 0.3420201 -0.9396927 0
vn 0.3420201 -0.9396927 0
vn 0.3420201 -0.9396927 0
vn 0.3420201 -0.9396927 0
vn -0.9396926 -0.3420201 0
vn -0.9396926 -0.3420201 0
vn -0.9396926 -0.3420201 0
vn -0.9396926 -0.3420201 0
vn -0.3420201 0.9396927 0
vn -0.3420201 0.9396927 0
vn -0.3420201 0.9396927 0
vn -0.3420201 0.9396927 0
vn 0.9396926 0.3420201 0
vn 0.9396926 0.3420201 0
vn 0.9396926 0.3420201 0
vn 0.9396926 0.3420201 0
vt 0.15625 0.21875
vt 0 0.21875
vt 0 0.1875
vt 0.15625 0.1875
vt 0.15625 0.21875
vt 0 0.21875
vt 0 0.1875
vt 0.15625 0.1875
vt 0.9375 0.21875
vt 0.15625 0.21875
vt 0.15625 0.1875
vt 0.9375 0.1875
vt 0.15625 1
vt 0 1
vt 0 0.21875
vt 0.15625 0.21875
vt 0.78125 0.21875
vt 0 0.21875
vt 0 0.1875
vt 0.78125 0.1875
vt 0.15625 1
vt 0 1
vt 0 0.21875
vt 0.15625 0.21875
f 1/1/1 3/3/3 4/4/4
f 1/1/1 2/2/2 3/3/3
f 5/5/5 7/7/7 8/8/8
f 5/5/5 6/6/6 7/7/7
f 9/9/9 11/11/11 12/12/12
f 9/9/9 10/10/10 11/11/11
f 13/13/13 15/15/15 16/16/16
f 13/13/13 14/14/14 15/15/15
f 17/17/17 19/19/19 20/20/20
f 17/17/17 18/18/18 19/19/19
f 21/21/21 23/23/23 24/24/24
f 21/21/21 22/22/22 23/23/23

# Block
v -0.1016739 0.1677319 0.78125
v -0.2085553 -0.125922 0.78125
v -0.2026822 -0.1280596 0.78125
v -0.09580085 0.1655943 0.78125
v -0.2085553 -0.125922 -0.78125
v -0.1016739 0.1677319 -0.78125
v -0.09580085 0.1655943 -0.78125
v -0.2026822 -0.1280596 -0.78125
v -0.1016739 0.1677319 -0.78125
v -0.1016739 0.1677319 0.78125
v -0.09580085 0.1655943 0.78125
v -0.09580085 0.1655943 -0.78125
v -0.09580085 0.1655943 0.78125
v -0.2026822 -0.1280596 0.78125
v -0.2026822 -0.1280596 -0.78125
v -0.09580085 0.1655943 -0.78125
v -0.2085553 -0.125922 0.78125
v -0.2085553 -0.125922 -0.78125
v -0.2026822 -0.1280596 -0.78125
v -0.2026822 -0.1280596 0.78125
v -0.1016739 0.1677319 -0.78125
v -0.2085553 -0.125922 -0.78125
v -0.2085553 -0.125922 0.78125
v -0.1016739 0.1677319 0.78125
vn 0 0 1
vn 0 0 1
vn 0 0 1
vn 0 0 1
vn 0 0 -1
vn 0 0 -1
vn 0 0 -1
vn 0 0 -1
vn 0.3420203 0.9396927 0
vn 0.3420203 0.9396927 0
vn 0.3420203 0.9396927 0
vn 0.3420203 0.9396927 0
vn 0.9396926 -0.3420203 0
vn 0.9396926 -0.3420203 0
vn 0.9396926 -0.3420203 0
vn 0.9396926 -0.3420203 0
vn -0.3420203 -0.9396927 0
vn -0.3420203 -0.9396927 0
vn -0.3420203 -0.9396927 0
vn -0.3420203 -0.9396927 0
vn -0.9396926 0.3420203 0
vn -0.9396926 0.3420203 0
vn -0.9396926 0.3420203 0
vn -0.9396926 0.3420203 0
vt 0.3125 0.21875
vt 0.15625 0.21875
vt 0.15625 0.1875
vt 0.3125 0.1875
vt 0.15625 0.21875
vt 0 0.21875
vt 0 0.1875
vt 0.15625 0.1875
vt 0.78125 0.21875
vt 0 0.21875
vt 0 0.1875
vt 0.78125 0.1875
vt 0.3125 1
vt 0.15625 1
vt 0.15625 0.21875
vt 0.3125 0.21875
vt 0.78125 0.21875
vt 0 0.21875
vt 0 0.1875
vt 0.78125 0.1875
vt 0.3125 1
vt 0.15625 1
vt 0.15625 0.21875
vt 0.3125 0.21875
f 25/25/25 27/27/27 28/28/28
f 25/25/25 26/26/26 27/27/27
f 29/29/29 31/31/31 32/32/32
f 29/29/29 30/30/30 31/31/31
f 33/33/33 35/35/35 36/36/36
f 33/33/33 34/34/34 35/35/35
f 37/37/37 39/39/39 40/40/40
f 37/37/37 38/38/38 39/39/39
f 41/41/41 43/43/43 44/44/44
f 41/41/41 42/42/42 43/43/43
f 45/45/45 47/47/47 48/48/48
f 45/45/45 46/46/46 47/47/47

# Block
v 0.01108041 -0.125922 0.78125
v -0.09580085 0.167732 0.78125
v -0.1016739 0.1655943 0.78125
v 0.005207329 -0.1280596 0.78125
v -0.09580085 0.167732 -0.78125
v 0.01108041 -0.125922 -0.78125
v 0.005207329 -0.1280596 -0.78125
v -0.1016739 0.1655943 -0.78125
v 0.01108041 -0.125922 -0.78125
v 0.01108041 -0.125922 0.78125
v 0.005207329 -0.1280596 0.78125
v 0.005207329 -0.1280596 -0.78125
v 0.005207329 -0.1280596 0.78125
v -0.1016739 0.1655943 0.78125
v -0.1016739 0.1655943 -0.78125
v 0.005207329 -0.1280596 -0.78125
v -0.09580085 0.167732 0.78125
v -0.09580085 0.167732 -0.78125
v -0.1016739 0.1655943 -0.78125
v -0.1016739 0.1655943 0.78125
v 0.01108041 -0.125922 -0.78125
v -0.09580085 0.167732 -0.78125
v -0.09580085 0.167732 0.78125
v 0.01108041 -0.125922 0.78125
vn 0 0 1
vn 0 0 1
vn 0 0 1
vn 0 0 1
vn 0 0 -1
vn 0 0 -1
vn 0 0 -1
vn 0 0 -1
vn 0.3420201 -0.9396927 0
vn 0.3420201 -0.9396927 0
vn 0.3420201 -0.9396927 0
vn 0.3420201 -0.9396927 0
vn -0.9396926 -0.3420201 0
vn -0.9396926 -0.3420201 0
vn -0.9396926 -0.3420201 0
vn -0.9396926 -0.3420201 0
vn -0.3420201 0.9396927 0
vn -0.3420201 0.9396927 0
vn -0.3420201 0.9396927 0
vn -0.3420201 0.9396927 0
vn 0.9396926 0.3420201 0
vn 0.9396926 0.3420201 0
vn 0.9396926 0.3420201 0
vn 0.9396926 0.3420201 0
vt 0.46875 0.21875
vt 0.3125 0.21875
vt 0.3125 0.1875
vt 0.46875 0.1875
vt 0.15625 0.21875
vt 0 0.21875
vt 0 0.1875
vt 0.15625 0.1875
vt 0.78125 0.21875
vt 0 0.21875
vt 0 0.1875
vt 0.78125 0.1875
vt 0.46875 1
vt 0.3125 1
vt 0.3125 0.21875
vt 0.46875 0.21875
vt 0.78125 0.21875
vt 0 0.21875
vt 0 0.1875
vt 0.78125 0.1875
vt 0.46875 1
vt 0.3125 1
vt 0.3125 0.21875
vt 0.46875 0.21875
f 49/49/49 51/51/51 52/52/52
f 49/49/49 50/50/50 51/51/51
f 53/53/53 55/55/55 56/56/56
f 53/53/53 54/54/54 55/55/55
f 57/57/57 59/59/59 60/60/60
f 57/57/57 58/58/58 59/59/59
f 61/61/61 63/63/63 64/64/64
f 61/61/61 62/62/62 63/63/63
f 65/65/65 67/67/67 68/68/68
f 65/65/65 66/66/66 67/67/67
f 69/69/69 71/71/71 72/72/72
f 69/69/69 70/70/70 71/71/71

# Block
v 0.1120887 0.1677319 0.78125
v 0.005207329 -0.125922 0.78125
v 0.01108041 -0.1280596 0.78125
v 0.1179617 0.1655943 0.78125
v 0.005207329 -0.125922 -0.78125
v 0.1120887 0.1677319 -0.78125
v 0.1179617 0.1655943 -0.78125
v 0.01108041 -0.1280596 -0.78125
v 0.1120887 0.1677319 -0.78125
v 0.1120887 0.1677319 0.78125
v 0.1179617 0.1655943 0.78125
v 0.1179617 0.1655943 -0.78125
v 0.1179617 0.1655943 0.78125
v 0.01108041 -0.1280596 0.78125
v 0.01108041 -0.1280596 -0.78125
v 0.1179617 0.1655943 -0.78125
v 0.005207329 -0.125922 0.78125
v 0.005207329 -0.125922 -0.78125
v 0.01108041 -0.1280596 -0.78125
v 0.01108041 -0.1280596 0.78125
v 0.1120887 0.1677319 -0.78125
v 0.005207329 -0.125922 -0.78125
v 0.005207329 -0.125922 0.78125
v 0.1120887 0.1677319 0.78125
vn 0 0 1
vn 0 0 1
vn 0 0 1
vn 0 0 1
vn 0 0 -1
vn 0 0 -1
vn 0 0 -1
vn 0 0 -1
vn 0.3420203 0.9396926 0
vn 0.3420203 0.9396926 0
vn 0.3420203 0.9396926 0
vn 0.3420203 0.9396926 0
vn 0.9396926 -0.3420203 0
vn 0.9396926 -0.3420203 0
vn 0.9396926 -0.3420203 0
vn 0.9396926 -0.3420203 0
vn -0.3420203 -0.9396926 0
vn -0.3420203 -0.9396926 0
vn -0.3420203 -0.9396926 0
vn -0.3420203 -0.9396926 0
vn -0.9396926 0.3420203 0
vn -0.9396926 0.3420203 0
vn -0.9396926 0.3420203 0
vn -0.9396926 0.3420203 0
vt 0.625 0.21875
vt 0.46875 0.21875
vt 0.46875 0.1875
vt 0.625 0.1875
vt 0.15625 0.21875
vt 0 0.21875
vt 0 0.1875
vt 0.15625 0.1875
vt 0.78125 0.21875
vt 0 0.21875
vt 0 0.1875
vt 0.78125 0.1875
vt 0.625 1
vt 0.46875 1
vt 0.46875 0.21875
vt 0.625 0.21875
vt 0.78125 0.21875
vt 0 0.21875
vt 0 0.1875
vt 0.78125 0.1875
vt 0.625 1
vt 0.46875 1
vt 0.46875 0.21875
vt 0.625 0.21875
f 73/73/73 75/75/75 76/76/76
f 73/73/73 74/74/74 75/75/75
f 77/77/77 79/79/79 80/80/80
f 77/77/77 78/78/78 79/79/79
f 81/81/81 83/83/83 84/84/84
f 81/81/81 82/82/82 83/83/83
f 85/85/85 87/87/87 88/88/88
f 85/85/85 86/86/86 87/87/87
f 89/89/89 91/91/91 92/92/92
f 89/89/89 90/90/90 91/91/91
f 93/93/93 95/95/95 96/96/96
f 93/93/93 94/94/94 95/95/95

# Block
v 0.224843 -0.125922 0.78125
v 0.1179617 0.1677319 0.78125
v 0.1120887 0.1655943 0.78125
v 0.2189699 -0.1280596 0.78125
v 0.1179617 0.1677319 -0.78125
v 0.224843 -0.125922 -0.78125
v 0.2189699 -0.1280596 -0.78125
v 0.1120887 0.1655943 -0.78125
v 0.224843 -0.125922 -0.78125
v 0.224843 -0.125922 0.78125
v 0.2189699 -0.1280596 0.78125
v 0.2189699 -0.1280596 -0.78125
v 0.2189699 -0.1280596 0.78125
v 0.1120887 0.1655943 0.78125
v 0.1120887 0.1655943 -0.78125
v 0.2189699 -0.1280596 -0.78125
v 0.1179617 0.1677319 0.78125
v 0.1179617 0.1677319 -0.78125
v 0.1120887 0.1655943 -0.78125
v 0.1120887 0.1655943 0.78125
v 0.224843 -0.125922 -0.78125
v 0.1179617 0.1677319 -0.78125
v 0.1179617 0.1677319 0.78125
v 0.224843 -0.125922 0.78125
vn 0 0 1
vn 0 0 1
vn 0 0 1
vn 0 0 1
vn 0 0 -1
vn 0 0 -1
vn 0 0 -1
vn 0 0 -1
vn 0.34202 -0.9396927 0
vn 0.34202 -0.9396927 0
vn 0.34202 -0.9396927 0
vn 0.34202 -0.9396927 0
vn -0.9396927 -0.3420201 0
vn -0.9396927 -0.3420201 0
vn -0.9396927 -0.3420201 0
vn -0.9396927 -0.3420201 0
vn -0.34202 0.9396927 0
vn -0.34202 0.9396927 0
vn -0.34202 0.9396927 0
vn -0.34202 0.9396927 0
vn 0.9396927 0.3420201 0
vn 0.9396927 0.3420201 0
vn 0.9396927 0.3420201 0
vn 0.9396927 0.3420201 0
vt 0.78125 0.21875
vt 0.625 0.21875
vt 0.625 0.1875
vt 0.78125 0.1875
vt 0.15625 0.21875
vt 0 0.21875
vt 0 0.1875
vt 0.15625 0.1875
vt 0.78125 0.21875
vt 0 0.21875
vt 0 0.1875
vt 0.78125 0.1875
vt 0.78125 1
vt 0.625 1
vt 0.625 0.21875
vt 0.78125 0.21875
vt 0.78125 0.21875
vt 0 0.21875
vt 0 0.1875
vt 0.78125 0.1875
vt 0.78125 1
vt 0.625 1
vt 0.625 0.21875
vt 0.78125 0.21875
f 97/97/97 99/99/99 100/100/100
f 97/97/97 98/98/98 99/99/99
f 101/101/101 103/103/103 104/104/104
f 101/101/101 102/102/102 103/103/103
f 105/105/105 107/107/107 108/108/108
f 105/105/105 106/106/106 107/107/107
f 109/109/109 111/111/111 112/112/112
f 109/109/109 110/110/110 111/111/111
f 113/113/113 115/115/115 116/116/116
f 113/113/113 114/114/114 115/115/115
f 117/117/117 119/119/119 120/120/120
f 117/117/117 118/118/118 119/119/119

# Block
v 0.3258513 0.1677319 0.78125
v 0.2189699 -0.125922 0.78125
v 0.224843 -0.1280596 0.78125
v 0.3317243 0.1655942 0.78125
v 0.2189699 -0.125922 -0.78125
v 0.3258513 0.1677319 -0.78125
v 0.3317243 0.1655942 -0.78125
v 0.224843 -0.1280596 -0.78125
v 0.3258513 0.1677319 -0.78125
v 0.3258513 0.1677319 0.78125
v 0.3317243 0.1655942 0.78125
v 0.3317243 0.1655942 -0.78125
v 0.3317243 0.1655942 0.78125
v 0.224843 -0.1280596 0.78125
v 0.224843 -0.1280596 -0.78125
v 0.3317243 0.1655942 -0.78125
v 0.2189699 -0.125922 0.78125
v 0.2189699 -0.125922 -0.78125
v 0.224843 -0.1280596 -0.78125
v 0.224843 -0.1280596 0.78125
v 0.3258513 0.1677319 -0.78125
v 0.2189699 -0.125922 -0.78125
v 0.2189699 -0.125922 0.78125
v 0.3258513 0.1677319 0.78125
vn 0 0 1
vn 0 0 1
vn 0 0 1
vn 0 0 1
vn 0 0 -1
vn 0 0 -1
vn 0 0 -1
vn 0 0 -1
vn 0.3420203 0.9396927 0
vn 0.3420203 0.9396927 0
vn 0.3420203 0.9396927 0
vn 0.3420203 0.9396927 0
vn 0.9396926 -0.3420203 0
vn 0.9396926 -0.3420203 0
vn 0.9396926 -0.3420203 0
vn 0.9396926 -0.3420203 0
vn -0.3420203 -0.9396927 0
vn -0.3420203 -0.9396927 0
vn -0.3420203 -0.9396927 0
vn -0.3420203 -0.9396927 0
vn -0.9396926 0.3420203 0
vn -0.9396926 0.3420203 0
vn -0.9396926 0.3420203 0
vn -0.9396926 0.3420203 0
vt 0.9375 0.21875
vt 0.78125 0.21875
vt 0.78125 0.1875
vt 0.9375 0.1875
vt 0.9375 0.21875
vt 0.78125 0.21875
vt 0.78125 0.1875
vt 0.9375 0.1875
vt 0.78125 0.21875
vt 0 0.21875
vt 0 0.1875
vt 0.78125 0.1875
vt 0.9375 1
vt 0.78125 1
vt 0.78125 0.21875
vt 0.9375 0.21875
vt 0.78125 0.21875
vt 0 0.21875
vt 0 0.1875
vt 0.78125 0.1875
vt 0.9375 1
vt 0.78125 1
vt 0.78125 0.21875
vt 0.9375 0.21875
f 121/121/121 123/123/123 124/124/124
f 121/121/121 122/122/122 123/123/123
f 125/125/125 127/127/127 128/128/128
f 125/125/125 126/126/126 127/127/127
f 129/129/129 131/131/131 132/132/132
f 129/129/129 130/130/130 131/131/131
f 133/133/133 135/135/135 136/136/136
f 133/133/133 134/134/134 135/135/135
f 137/137/137 139/139/139 140/140/140
f 137/137/137 138/138/138 139/139/139
f 141/141/141 143/143/143 144/144/144
f 141/141/141 142/142/142 143/143/143

