# vitre
v -0.9696953 0.6725412 0.255
v -1.01389 0.7167354 0.255
v -1.23486 0.4957646 0.255
v -1.190666 0.4515704 0.255
v -1.01389 0.7167354 -0.255
v -0.9696953 0.6725412 -0.255
v -1.190666 0.4515704 -0.255
v -1.23486 0.4957646 -0.255
v -0.9696953 0.6725412 -0.255
v -0.9696953 0.6725412 0.255
v -1.190666 0.4515704 0.255
v -1.190666 0.4515704 -0.255
v -1.190666 0.4515704 0.255
v -1.23486 0.4957646 0.255
v -1.23486 0.4957646 -0.255
v -1.190666 0.4515704 -0.255
v -1.01389 0.7167354 0.255
v -1.01389 0.7167354 -0.255
v -1.23486 0.4957646 -0.255
v -1.23486 0.4957646 0.255
v -0.9696953 0.6725412 -0.255
v -1.01389 0.7167354 -0.255
v -1.01389 0.7167354 0.255
v -0.9696953 0.6725412 0.255
vn 0 0 1
vn 0 0 1
vn 0 0 1
vn 0 0 1
vn 0 0 -1
vn 0 0 -1
vn 0 0 -1
vn 0 0 -1
vn 0.7071068 -0.7071069 0
vn 0.7071068 -0.7071069 0
vn 0.7071068 -0.7071069 0
vn 0.7071068 -0.7071069 0
vn -0.7071069 -0.7071068 0
vn -0.7071069 -0.7071068 0
vn -0.7071069 -0.7071068 0
vn -0.7071069 -0.7071068 0
vn -0.7071068 0.7071069 0
vn -0.7071068 0.7071069 0
vn -0.7071068 0.7071069 0
vn -0.7071068 0.7071069 0
vn 0.7071069 0.7071068 0
vn 0.7071069 0.7071068 0
vn 0.7071069 0.7071068 0
vn 0.7071069 0.7071068 0
vt 0.7734375 0.9453125
vt 0.765625 0.9453125
vt 0.765625 0.90625
vt 0.7734375 0.90625
vt 0.7734375 0.9453125
vt 0.765625 0.9453125
vt 0.765625 0.90625
vt 0.7734375 0.90625
vt 0.765625 0.9453125
vt 0.703125 0.9453125
vt 0.703125 0.90625
vt 0.765625 0.90625
vt 0.765625 0.9453125
vt 0.765625 0.953125
vt 0.703125 0.953125
vt 0.703125 0.9453125
vt 0.765625 0.9453125
vt 0.703125 0.9453125
vt 0.703125 0.90625
vt 0.765625 0.90625
vt 0.765625 0.9453125
vt 0.765625 0.953125
vt 0.703125 0.953125
vt 0.703125 0.9453125
f 1/1/1 3/3/3 4/4/4
f 1/1/1 2/2/2 3/3/3
f 5/5/5 7/7/7 8/8/8
f 5/5/5 6/6/6 7/7/7
f 9/9/9 11/11/11 12/12/12
f 9/9/9 10/10/10 11/11/11
f 13/13/13 15/15/15 16/16/16
f 13/13/13 14/14/14 15/15/15
f 17/17/17 19/19/19 20/20/20
f 17/17/17 18/18/18 19/19/19
f 21/21/21 23/23/23 24/24/24
f 21/21/21 22/22/22 23/23/23

# c
v -0.9003785 0.6023405 0.2771234
v -0.9224756 0.6244376 0.33125
v -1.143447 0.4034667 0.33125
v -1.121349 0.3813696 0.2771234
v -1.014331 0.7162935 0.25625
v -0.9922344 0.6941963 0.2021234
v -1.213205 0.4732255 0.2021234
v -1.235302 0.4953226 0.25625
v -0.9922344 0.6941963 0.2021234
v -0.9003785 0.6023405 0.2771234
v -1.121349 0.3813696 0.2771234
v -1.213205 0.4732255 0.2021234
v -1.121349 0.3813696 0.2771234
v -1.143447 0.4034667 0.33125
v -1.235302 0.4953226 0.25625
v -1.213205 0.4732255 0.2021234
v -0.9224756 0.6244376 0.33125
v -1.014331 0.7162935 0.25625
v -1.235302 0.4953226 0.25625
v -1.143447 0.4034667 0.33125
v -0.9922344 0.6941963 0.2021234
v -1.014331 0.7162935 0.25625
v -0.9224756 0.6244376 0.33125
v -0.9003785 0.6023405 0.2771234
vn 0.6123724 -0.6123725 0.5000001
vn 0.6123724 -0.6123725 0.5000001
vn 0.6123724 -0.6123725 0.5000001
vn 0.6123724 -0.6123725 0.5000001
vn -0.6123724 0.6123725 -0.5000001
vn -0.6123724 0.6123725 -0.5000001
vn -0.6123724 0.6123725 -0.5000001
vn -0.6123724 0.6123725 -0.5000001
vn 0.3535534 -0.3535534 -0.8660255
vn 0.3535534 -0.3535534 -0.8660255
vn 0.3535534 -0.3535534 -0.8660255
vn 0.3535534 -0.3535534 -0.8660255
vn -0.7071069 -0.7071068 0
vn -0.7071069 -0.7071068 0
vn -0.7071069 -0.7071068 0
vn -0.7071069 -0.7071068 0
vn -0.3535534 0.3535534 0.8660255
vn -0.3535534 0.3535534 0.8660255
vn -0.3535534 0.3535534 0.8660255
vn -0.3535534 0.3535534 0.8660255
vn 0.7071069 0.7071068 0
vn 0.7071069 0.7071068 0
vn 0.7071069 0.7071068 0
vn 0.7071069 0.7071068 0
vt 0.734375 0.90625
vt 0.7265625 0.90625
vt 0.7265625 0.8671875
vt 0.734375 0.8671875
vt 0.734375 0.90625
vt 0.7265625 0.90625
vt 0.7265625 0.8671875
vt 0.734375 0.8671875
vt 0.7265625 0.90625
vt 0.703125 0.90625
vt 0.703125 0.8671875
vt 0.7265625 0.8671875
vt 0.7421875 0.90625
vt 0.734375 0.90625
vt 0.734375 0.8828125
vt 0.7421875 0.8828125
vt 0.7265625 0.90625
vt 0.703125 0.90625
vt 0.703125 0.8671875
vt 0.7265625 0.8671875
vt 0.7421875 0.90625
vt 0.734375 0.90625
vt 0.734375 0.8828125
vt 0.7421875 0.8828125
f 25/25/25 27/27/27 28/28/28
f 25/25/25 26/26/26 27/27/27
f 29/29/29 31/31/31 32/32/32
f 29/29/29 30/30/30 31/31/31
f 33/33/33 35/35/35 36/36/36
f 33/33/33 34/34/34 35/35/35
f 37/37/37 39/39/39 40/40/40
f 37/37/37 38/38/38 39/39/39
f 41/41/41 43/43/43 44/44/44
f 41/41/41 42/42/42 43/43/43
f 45/45/45 47/47/47 48/48/48
f 45/45/45 46/46/46 47/47/47

# c
v -0.9922344 0.6941963 -0.2021234
v -1.014331 0.7162934 -0.25625
v -1.235302 0.4953226 -0.25625
v -1.213205 0.4732255 -0.2021234
v -0.9224756 0.6244376 -0.33125
v -0.9003785 0.6023405 -0.2771234
v -1.121349 0.3813696 -0.2771234
v -1.143447 0.4034667 -0.33125
v -0.9003785 0.6023405 -0.2771234
v -0.9922344 0.6941963 -0.2021234
v -1.213205 0.4732255 -0.2021234
v -1.121349 0.3813696 -0.2771234
v -1.213205 0.4732255 -0.2021234
v -1.235302 0.4953226 -0.25625
v -1.143447 0.4034667 -0.33125
v -1.121349 0.3813696 -0.2771234
v -1.014331 0.7162934 -0.25625
v -0.9224756 0.6244376 -0.33125
v -1.143447 0.4034667 -0.33125
v -1.235302 0.4953226 -0.25625
v -0.9003785 0.6023405 -0.2771234
v -0.9224756 0.6244376 -0.33125
v -1.014331 0.7162934 -0.25625
v -0.9922344 0.6941963 -0.2021234
vn -0.6123724 0.6123725 0.5
vn -0.6123724 0.6123725 0.5
vn -0.6123724 0.6123725 0.5
vn -0.6123724 0.6123725 0.5
vn 0.6123724 -0.6123725 -0.5
vn 0.6123724 -0.6123725 -0.5
vn 0.6123724 -0.6123725 -0.5
vn 0.6123724 -0.6123725 -0.5
vn 0.3535533 -0.3535534 0.8660254
vn 0.3535533 -0.3535534 0.8660254
vn 0.3535533 -0.3535534 0.8660254
vn 0.3535533 -0.3535534 0.8660254
vn -0.7071069 -0.7071067 5.567254E-10
vn -0.7071069 -0.7071067 5.567254E-10
vn -0.7071069 -0.7071067 5.567254E-10
vn -0.7071069 -0.7071067 5.567254E-10
vn -0.3535533 0.3535534 -0.8660254
vn -0.3535533 0.3535534 -0.8660254
vn -0.3535533 0.3535534 -0.8660254
vn -0.3535533 0.3535534 -0.8660254
vn 0.7071069 0.7071067 -5.567254E-10
vn 0.7071069 0.7071067 -5.567254E-10
vn 0.7071069 0.7071067 -5.567254E-10
vn 0.7071069 0.7071067 -5.567254E-10
vt 0.734375 0.90625
vt 0.7265625 0.90625
vt 0.7265625 0.8671875
vt 0.734375 0.8671875
vt 0.734375 0.90625
vt 0.7265625 0.90625
vt 0.7265625 0.8671875
vt 0.734375 0.8671875
vt 0.7265625 0.90625
vt 0.703125 0.90625
vt 0.703125 0.8671875
vt 0.7265625 0.8671875
vt 0.7421875 0.90625
vt 0.734375 0.90625
vt 0.734375 0.8828125
vt 0.7421875 0.8828125
vt 0.7265625 0.90625
vt 0.703125 0.90625
vt 0.703125 0.8671875
vt 0.7265625 0.8671875
vt 0.7421875 0.90625
vt 0.734375 0.90625
vt 0.734375 0.8828125
vt 0.7421875 0.8828125
f 49/49/49 51/51/51 52/52/52
f 49/49/49 50/50/50 51/51/51
f 53/53/53 55/55/55 56/56/56
f 53/53/53 54/54/54 55/55/55
f 57/57/57 59/59/59 60/60/60
f 57/57/57 58/58/58 59/59/59
f 61/61/61 63/63/63 64/64/64
f 61/61/61 62/62/62 63/63/63
f 65/65/65 67/67/67 68/68/68
f 65/65/65 66/66/66 67/67/67
f 69/69/69 71/71/71 72/72/72
f 69/69/69 70/70/70 71/71/71

