# tronc
v 0.1432086 0.9961398 0.2316228
v -0.2303644 0.9635807 0.2287743
v -0.1432086 -0.02882315 0.1419502
v 0.2303644 0.003735882 0.1447987
v -0.2303644 0.9962641 -0.1447987
v 0.1432086 1.028823 -0.1419502
v 0.2303644 0.03641929 -0.2287743
v -0.1432086 0.003860253 -0.2316228
v 0.1432086 1.028823 -0.1419502
v 0.1432086 0.9961398 0.2316228
v 0.2303644 0.003735882 0.1447987
v 0.2303644 0.03641929 -0.2287743
v 0.2303644 0.003735882 0.1447987
v -0.1432086 -0.02882315 0.1419502
v -0.1432086 0.003860253 -0.2316228
v 0.2303644 0.03641929 -0.2287743
v -0.2303644 0.9635807 0.2287743
v -0.2303644 0.9962641 -0.1447987
v -0.1432086 0.003860253 -0.2316228
v -0.1432086 -0.02882315 0.1419502
v 0.1432086 1.028823 -0.1419502
v -0.2303644 0.9962641 -0.1447987
v -0.2303644 0.9635807 0.2287743
v 0.1432086 0.9961398 0.2316228
vn 2.328306E-10 -0.08715574 0.9961947
vn 2.328306E-10 -0.08715574 0.9961947
vn 2.328306E-10 -0.08715574 0.9961947
vn 2.328306E-10 -0.08715574 0.9961947
vn -2.328306E-10 0.08715574 -0.9961947
vn -2.328306E-10 0.08715574 -0.9961947
vn -2.328306E-10 0.08715574 -0.9961947
vn -2.328306E-10 0.08715574 -0.9961947
vn 0.9961947 0.08682409 0.007596124
vn 0.9961947 0.08682409 0.007596124
vn 0.9961947 0.08682409 0.007596124
vn 0.9961947 0.08682409 0.007596124
vn 0.08715574 -0.9924039 -0.08682409
vn 0.08715574 -0.9924039 -0.08682409
vn 0.08715574 -0.9924039 -0.08682409
vn 0.08715574 -0.9924039 -0.08682409
vn -0.9961947 -0.08682409 -0.007596124
vn -0.9961947 -0.08682409 -0.007596124
vn -0.9961947 -0.08682409 -0.007596124
vn -0.9961947 -0.08682409 -0.007596124
vn -0.08715574 0.9924039 0.08682409
vn -0.08715574 0.9924039 0.08682409
vn -0.08715574 0.9924039 0.08682409
vn -0.08715574 0.9924039 0.08682409
vt 0.375 0.5
vt 0.1875 0.5
vt 0.1875 0
vt 0.375 0
vt 0.375 0.5
vt 0.1875 0.5
vt 0.1875 0
vt 0.375 0
vt 0.1875 0.5
vt 0 0.5
vt 0 0
vt 0.1875 0
vt 0.375 0.5
vt 0.1875 0.5
vt 0.1875 0.3125
vt 0.375 0.3125
vt 0.1875 0.5
vt 0 0.5
vt 0 0
vt 0.1875 0
vt 0.1875 0.5
vt 0 0.5
vt 0 0.3125
vt 0.1875 0.3125
f 1/1/1 3/3/3 4/4/4
f 1/1/1 2/2/2 3/3/3
f 5/5/5 7/7/7 8/8/8
f 5/5/5 6/6/6 7/7/7
f 9/9/9 11/11/11 12/12/12
f 9/9/9 10/10/10 11/11/11
f 13/13/13 15/15/15 16/16/16
f 13/13/13 14/14/14 15/15/15
f 17/17/17 19/19/19 20/20/20
f 17/17/17 18/18/18 19/19/19
f 21/21/21 23/23/23 24/24/24
f 21/21/21 22/22/22 23/23/23

# tronc
v 0.2372575 1.831514 0.4593022
v -0.1362293 1.862105 0.4733295
v -0.224689 0.8994539 0.217445
v 0.1487978 0.8688622 0.2034178
v -0.1419047 1.958916 0.1110857
v 0.2315821 1.928324 0.09705842
v 0.1431224 0.9656724 -0.158826
v -0.2303644 0.9962642 -0.1447987
v 0.2315821 1.928324 0.09705842
v 0.2372575 1.831514 0.4593022
v 0.1487978 0.8688622 0.2034178
v 0.1431224 0.9656724 -0.158826
v 0.1487978 0.8688622 0.2034178
v -0.224689 0.8994539 0.217445
v -0.2303644 0.9962642 -0.1447987
v 0.1431224 0.9656724 -0.158826
v -0.1362293 1.862105 0.4733295
v -0.1419047 1.958916 0.1110857
v -0.2303644 0.9962642 -0.1447987
v -0.224689 0.8994539 0.217445
v 0.2315821 1.928324 0.09705842
v -0.1419047 1.958916 0.1110857
v -0.1362293 1.862105 0.4733295
v 0.2372575 1.831514 0.4593022
vn 0.01513444 -0.2581608 0.9659835
vn 0.01513444 -0.2581608 0.9659835
vn 0.01513444 -0.2581608 0.9659835
vn 0.01513444 -0.2581608 0.9659835
vn -0.01513444 0.2581608 -0.9659835
vn -0.01513444 0.2581608 -0.9659835
vn -0.01513444 0.2581608 -0.9659835
vn -0.01513444 0.2581608 -0.9659835
vn 0.9959648 -0.08157794 -0.03740601
vn 0.9959648 -0.08157794 -0.03740601
vn 0.9959648 -0.08157794 -0.03740601
vn 0.9959648 -0.08157794 -0.03740601
vn -0.08845972 -0.9626517 -0.2558844
vn -0.08845972 -0.9626517 -0.2558844
vn -0.08845972 -0.9626517 -0.2558844
vn -0.08845972 -0.9626517 -0.2558844
vn -0.9959648 0.08157794 0.03740601
vn -0.9959648 0.08157794 0.03740601
vn -0.9959648 0.08157794 0.03740601
vn -0.9959648 0.08157794 0.03740601
vn 0.08845972 0.9626517 0.2558844
vn 0.08845972 0.9626517 0.2558844
vn 0.08845972 0.9626517 0.2558844
vn 0.08845972 0.9626517 0.2558844
vt 0.375 0.5
vt 0.1875 0.5
vt 0.1875 0
vt 0.375 0
vt 0.375 0.5
vt 0.1875 0.5
vt 0.1875 0
vt 0.375 0
vt 0.1875 0.5
vt 0 0.5
vt 0 0
vt 0.1875 0
vt 0.375 0.5
vt 0.1875 0.5
vt 0.1875 0.3125
vt 0.375 0.3125
vt 0.1875 0.5
vt 0 0.5
vt 0 0
vt 0.1875 0
vt 0.1875 0.5
vt 0 0.5
vt 0 0.3125
vt 0.1875 0.3125
f 25/25/25 27/27/27 28/28/28
f 25/25/25 26/26/26 27/27/27
f 29/29/29 31/31/31 32/32/32
f 29/29/29 30/30/30 31/31/31
f 33/33/33 35/35/35 36/36/36
f 33/33/33 34/34/34 35/35/35
f 37/37/37 39/39/39 40/40/40
f 37/37/37 38/38/38 39/39/39
f 41/41/41 43/43/43 44/44/44
f 41/41/41 42/42/42 43/43/43
f 45/45/45 47/47/47 48/48/48
f 45/45/45 46/46/46 47/47/47

# leaves
v 0.6470336 2.203144 0.8735549
v -0.3489311 2.284722 0.9109609
v -0.4373908 1.32207 0.6550764
v 0.558574 1.240492 0.6176705
v -0.3640656 2.542883 -0.05502252
v 0.6318992 2.461305 -0.09242853
v 0.5434395 1.498653 -0.3483129
v -0.4525253 1.580231 -0.3109069
v 0.6318992 2.461305 -0.09242853
v 0.6470336 2.203144 0.8735549
v 0.558574 1.240492 0.6176705
v 0.5434395 1.498653 -0.3483129
v 0.558574 1.240492 0.6176705
v -0.4373908 1.32207 0.6550764
v -0.4525253 1.580231 -0.3109069
v 0.5434395 1.498653 -0.3483129
v -0.3489311 2.284722 0.9109609
v -0.3640656 2.542883 -0.05502252
v -0.4525253 1.580231 -0.3109069
v -0.4373908 1.32207 0.6550764
v 0.6318992 2.461305 -0.09242853
v -0.3640656 2.542883 -0.05502252
v -0.3489311 2.284722 0.9109609
v 0.6470336 2.203144 0.8735549
vn 0.01513444 -0.2581608 0.9659835
vn 0.01513444 -0.2581608 0.9659835
vn 0.01513444 -0.2581608 0.9659835
vn 0.01513444 -0.2581608 0.9659835
vn -0.01513444 0.2581608 -0.9659835
vn -0.01513444 0.2581608 -0.9659835
vn -0.01513444 0.2581608 -0.9659835
vn -0.01513444 0.2581608 -0.9659835
vn 0.9959648 -0.08157794 -0.03740601
vn 0.9959648 -0.08157794 -0.03740601
vn 0.9959648 -0.08157794 -0.03740601
vn 0.9959648 -0.08157794 -0.03740601
vn -0.08845972 -0.9626517 -0.2558844
vn -0.08845972 -0.9626517 -0.2558844
vn -0.08845972 -0.9626517 -0.2558844
vn -0.08845972 -0.9626517 -0.2558844
vn -0.9959648 0.08157794 0.03740601
vn -0.9959648 0.08157794 0.03740601
vn -0.9959648 0.08157794 0.03740601
vn -0.9959648 0.08157794 0.03740601
vn 0.08845972 0.9626517 0.2558844
vn 0.08845972 0.9626517 0.2558844
vn 0.08845972 0.9626517 0.2558844
vn 0.08845972 0.9626517 0.2558844
vt 1 0.5
vt 0.5 0.5
vt 0.5 0
vt 1 0
vt 1 0.5
vt 0.5 0.5
vt 0.5 0
vt 1 0
vt 1 0.5
vt 0.5 0.5
vt 0.5 0
vt 1 0
vt 1 0.5
vt 0.5 0.5
vt 0.5 0
vt 1 0
vt 1 0.5
vt 0.5 0.5
vt 0.5 0
vt 1 0
vt 1 0.5
vt 0.5 0.5
vt 0.5 0
vt 1 0
f 49/49/49 51/51/51 52/52/52
f 49/49/49 50/50/50 51/51/51
f 53/53/53 55/55/55 56/56/56
f 53/53/53 54/54/54 55/55/55
f 57/57/57 59/59/59 60/60/60
f 57/57/57 58/58/58 59/59/59
f 61/61/61 63/63/63 64/64/64
f 61/61/61 62/62/62 63/63/63
f 65/65/65 67/67/67 68/68/68
f 65/65/65 66/66/66 67/67/67
f 69/69/69 71/71/71 72/72/72
f 69/69/69 70/70/70 71/71/71

# leaves
v 0.2635429 2.535926 0.8356755
v -0.5607468 2.454715 0.2753621
v -0.6308462 1.48731 0.5187015
v 0.1934435 1.568521 1.079015
v 0.001064923 2.214855 -0.5163668
v 0.8253546 2.296066 0.04394658
v 0.7552553 1.328661 0.2872859
v -0.06903449 1.24745 -0.2730275
v 0.8253546 2.296066 0.04394658
v 0.2635429 2.535926 0.8356755
v 0.1934435 1.568521 1.079015
v 0.7552553 1.328661 0.2872859
v 0.1934435 1.568521 1.079015
v -0.6308462 1.48731 0.5187015
v -0.06903449 1.24745 -0.2730275
v 0.7552553 1.328661 0.2872859
v -0.5607468 2.454715 0.2753621
v 0.001064923 2.214855 -0.5163668
v -0.06903449 1.24745 -0.2730275
v -0.6308462 1.48731 0.5187015
v 0.8253546 2.296066 0.04394658
v 0.001064923 2.214855 -0.5163668
v -0.5607468 2.454715 0.2753621
v 0.2635429 2.535926 0.8356755
vn -0.5618118 0.2398598 0.7917291
vn -0.5618118 0.2398598 0.7917291
vn -0.5618118 0.2398598 0.7917291
vn -0.5618118 0.2398598 0.7917291
vn 0.5618118 -0.2398598 -0.7917291
vn 0.5618118 -0.2398598 -0.7917291
vn 0.5618118 -0.2398598 -0.7917291
vn 0.5618118 -0.2398598 -0.7917291
vn 0.8242899 0.08121118 0.5603135
vn 0.8242899 0.08121118 0.5603135
vn 0.8242899 0.08121118 0.5603135
vn 0.8242899 0.08121118 0.5603135
vn -0.07009941 -0.9674049 0.2433394
vn -0.07009941 -0.9674049 0.2433394
vn -0.07009941 -0.9674049 0.2433394
vn -0.07009941 -0.9674049 0.2433394
vn -0.8242899 -0.08121118 -0.5603135
vn -0.8242899 -0.08121118 -0.5603135
vn -0.8242899 -0.08121118 -0.5603135
vn -0.8242899 -0.08121118 -0.5603135
vn 0.07009941 0.9674049 -0.2433394
vn 0.07009941 0.9674049 -0.2433394
vn 0.07009941 0.9674049 -0.2433394
vn 0.07009941 0.9674049 -0.2433394
vt 1 0.5
vt 0.5 0.5
vt 0.5 0
vt 1 0
vt 1 0.5
vt 0.5 0.5
vt 0.5 0
vt 1 0
vt 1 0.5
vt 0.5 0.5
vt 0.5 0
vt 1 0
vt 1 0.5
vt 0.5 0.5
vt 0.5 0
vt 1 0
vt 1 0.5
vt 0.5 0.5
vt 0.5 0
vt 1 0
vt 1 0.5
vt 0.5 0.5
vt 0.5 0
vt 1 0
f 73/73/73 75/75/75 76/76/76
f 73/73/73 74/74/74 75/75/75
f 77/77/77 79/79/79 80/80/80
f 77/77/77 78/78/78 79/79/79
f 81/81/81 83/83/83 84/84/84
f 81/81/81 82/82/82 83/83/83
f 85/85/85 87/87/87 88/88/88
f 85/85/85 86/86/86 87/87/87
f 89/89/89 91/91/91 92/92/92
f 89/89/89 90/90/90 91/91/91
f 93/93/93 95/95/95 96/96/96
f 93/93/93 94/94/94 95/95/95

# branche
v -0.175649 1.058639 0.07212498
v -0.8270535 1.274524 -0.2304739
v -0.8966107 1.035309 -0.2514025
v -0.2452062 0.8194241 0.05119639
v -0.7245144 1.264637 -0.4582633
v -0.07310992 1.048752 -0.1556644
v -0.1426671 0.8095375 -0.176593
v -0.7940716 1.025422 -0.4791919
v -0.07310992 1.048752 -0.1556644
v -0.175649 1.058639 0.07212498
v -0.2452062 0.8194241 0.05119639
v -0.1426671 0.8095375 -0.176593
v -0.2452062 0.8194241 0.05119639
v -0.8966107 1.035309 -0.2514025
v -0.7940716 1.025422 -0.4791919
v -0.1426671 0.8095375 -0.176593
v -0.8270535 1.274524 -0.2304739
v -0.7245144 1.264637 -0.4582633
v -0.7940716 1.025422 -0.4791919
v -0.8966107 1.035309 -0.2514025
v -0.07310992 1.048752 -0.1556644
v -0.7245144 1.264637 -0.4582633
v -0.8270535 1.274524 -0.2304739
v -0.175649 1.058639 0.07212498
vn -0.4101565 0.03954637 0.9111574
vn -0.4101565 0.03954637 0.9111574
vn -0.4101565 0.03954637 0.9111574
vn -0.4101565 0.03954637 0.9111574
vn 0.4101565 -0.03954637 -0.9111574
vn 0.4101565 -0.03954637 -0.9111574
vn 0.4101565 -0.03954637 -0.9111574
vn 0.4101565 -0.03954637 -0.9111574
vn 0.8685393 -0.2878461 0.4034652
vn 0.8685393 -0.2878461 0.4034652
vn 0.8685393 -0.2878461 0.4034652
vn 0.8685393 -0.2878461 0.4034652
vn -0.2782287 -0.9568599 -0.0837144
vn -0.2782287 -0.9568599 -0.0837144
vn -0.2782287 -0.9568599 -0.0837144
vn -0.2782287 -0.9568599 -0.0837144
vn -0.8685393 0.2878461 -0.4034652
vn -0.8685393 0.2878461 -0.4034652
vn -0.8685393 0.2878461 -0.4034652
vn -0.8685393 0.2878461 -0.4034652
vn 0.2782287 0.9568599 0.0837144
vn 0.2782287 0.9568599 0.0837144
vn 0.2782287 0.9568599 0.0837144
vn 0.2782287 0.9568599 0.0837144
vt 0.125 0.5
vt 0.125 0.875
vt 0 0.875
vt 0 0.5
vt 0.125 0.5
vt 0.125 0.875
vt 0 0.875
vt 0 0.5
vt 0.125 0.75
vt 0.125 0.875
vt 0 0.875
vt 0 0.75
vt 0.25 0.5
vt 0.25 0.875
vt 0.125 0.875
vt 0.125 0.5
vt 0.125 0.75
vt 0.125 0.875
vt 0 0.875
vt 0 0.75
vt 0.25 0.5
vt 0.25 0.875
vt 0.125 0.875
vt 0.125 0.5
f 97/97/97 99/99/99 100/100/100
f 97/97/97 98/98/98 99/99/99
f 101/101/101 103/103/103 104/104/104
f 101/101/101 102/102/102 103/103/103
f 105/105/105 107/107/107 108/108/108
f 105/105/105 106/106/106 107/107/107
f 109/109/109 111/111/111 112/112/112
f 109/109/109 110/110/110 111/111/111
f 113/113/113 115/115/115 116/116/116
f 113/113/113 114/114/114 115/115/115
f 117/117/117 119/119/119 120/120/120
f 117/117/117 118/118/118 119/119/119

# leaves
v -0.5761254 1.766402 0.1509333
v -1.25647 1.719865 -0.1612608
v -1.198356 0.9722745 -0.176468
v -0.5180108 1.018811 0.135726
v -0.946223 1.757851 -0.8430259
v -0.265878 1.804387 -0.5308319
v -0.2077634 1.056797 -0.5460391
v -0.8881083 1.01026 -0.8582332
v -0.265878 1.804387 -0.5308319
v -0.5761254 1.766402 0.1509333
v -0.5180108 1.018811 0.135726
v -0.2077634 1.056797 -0.5460391
v -0.5180108 1.018811 0.135726
v -1.198356 0.9722745 -0.176468
v -0.8881083 1.01026 -0.8582332
v -0.2077634 1.056797 -0.5460391
v -1.25647 1.719865 -0.1612608
v -0.946223 1.757851 -0.8430259
v -0.8881083 1.01026 -0.8582332
v -1.198356 0.9722745 -0.176468
v -0.265878 1.804387 -0.5308319
v -0.946223 1.757851 -0.8430259
v -1.25647 1.719865 -0.1612608
v -0.5761254 1.766402 0.1509333
vn -0.4136632 -0.05064751 0.9090201
vn -0.4136632 -0.05064751 0.9090201
vn -0.4136632 -0.05064751 0.9090201
vn -0.4136632 -0.05064751 0.9090201
vn 0.4136632 0.05064751 -0.9090201
vn 0.4136632 0.05064751 -0.9090201
vn 0.4136632 0.05064751 -0.9090201
vn 0.4136632 0.05064751 -0.9090201
vn 0.9071267 0.06204889 0.4162588
vn 0.9071267 0.06204889 0.4162588
vn 0.9071267 0.06204889 0.4162588
vn 0.9071267 0.06204889 0.4162588
vn 0.07748617 -0.9967873 -0.02027637
vn 0.07748617 -0.9967873 -0.02027637
vn 0.07748617 -0.9967873 -0.02027637
vn 0.07748617 -0.9967873 -0.02027637
vn -0.9071267 -0.06204889 -0.4162588
vn -0.9071267 -0.06204889 -0.4162588
vn -0.9071267 -0.06204889 -0.4162588
vn -0.9071267 -0.06204889 -0.4162588
vn -0.07748617 0.9967873 0.02027637
vn -0.07748617 0.9967873 0.02027637
vn -0.07748617 0.9967873 0.02027637
vn -0.07748617 0.9967873 0.02027637
vt 1 1
vt 0.625 1
vt 0.625 0.625
vt 1 0.625
vt 1 1
vt 0.625 1
vt 0.625 0.625
vt 1 0.625
vt 1 1
vt 0.625 1
vt 0.625 0.625
vt 1 0.625
vt 1 1
vt 0.625 1
vt 0.625 0.625
vt 1 0.625
vt 1 1
vt 0.625 1
vt 0.625 0.625
vt 1 0.625
vt 1 1
vt 0.625 1
vt 0.625 0.625
vt 1 0.625
f 121/121/121 123/123/123 124/124/124
f 121/121/121 122/122/122 123/123/123
f 125/125/125 127/127/127 128/128/128
f 125/125/125 126/126/126 127/127/127
f 129/129/129 131/131/131 132/132/132
f 129/129/129 130/130/130 131/131/131
f 133/133/133 135/135/135 136/136/136
f 133/133/133 134/134/134 135/135/135
f 137/137/137 139/139/139 140/140/140
f 137/137/137 138/138/138 139/139/139
f 141/141/141 143/143/143 144/144/144
f 141/141/141 142/142/142 143/143/143

# leaves
v -0.9101672 2.012688 -0.3349239
v -1.353805 1.441683 -0.5340181
v -1.10542 1.044486 0.05167786
v -0.6617825 1.615492 0.2507721
v -0.8024513 1.16117 -0.958072
v -0.3588136 1.732175 -0.7589778
v -0.1104289 1.334979 -0.1732818
v -0.5540666 0.7639732 -0.372376
v -0.3588136 1.732175 -0.7589778
v -0.9101672 2.012688 -0.3349239
v -0.6617825 1.615492 0.2507721
v -0.1104289 1.334979 -0.1732818
v -0.6617825 1.615492 0.2507721
v -1.10542 1.044486 0.05167786
v -0.5540666 0.7639732 -0.372376
v -0.1104289 1.334979 -0.1732818
v -1.353805 1.441683 -0.5340181
v -0.8024513 1.16117 -0.958072
v -0.5540666 0.7639732 -0.372376
v -1.10542 1.044486 0.05167786
v -0.3588136 1.732175 -0.7589778
v -0.8024513 1.16117 -0.958072
v -1.353805 1.441683 -0.5340181
v -0.9101672 2.012688 -0.3349239
vn -0.7351381 0.3740174 0.5654052
vn -0.7351381 0.3740174 0.5654052
vn -0.7351381 0.3740174 0.5654052
vn -0.7351381 0.3740174 0.5654052
vn 0.7351381 -0.3740174 -0.5654052
vn 0.7351381 -0.3740174 -0.5654052
vn 0.7351381 -0.3740174 -0.5654052
vn 0.7351381 -0.3740174 -0.5654052
vn 0.5915169 0.7613405 0.265459
vn 0.5915169 0.7613405 0.265459
vn 0.5915169 0.7613405 0.265459
vn 0.5915169 0.7613405 0.265459
vn 0.3311796 -0.5295957 0.7809281
vn 0.3311796 -0.5295957 0.7809281
vn 0.3311796 -0.5295957 0.7809281
vn 0.3311796 -0.5295957 0.7809281
vn -0.5915169 -0.7613405 -0.265459
vn -0.5915169 -0.7613405 -0.265459
vn -0.5915169 -0.7613405 -0.265459
vn -0.5915169 -0.7613405 -0.265459
vn -0.3311796 0.5295957 -0.7809281
vn -0.3311796 0.5295957 -0.7809281
vn -0.3311796 0.5295957 -0.7809281
vn -0.3311796 0.5295957 -0.7809281
vt 1 1
vt 0.625 1
vt 0.625 0.625
vt 1 0.625
vt 1 1
vt 0.625 1
vt 0.625 0.625
vt 1 0.625
vt 1 1
vt 0.625 1
vt 0.625 0.625
vt 1 0.625
vt 1 1
vt 0.625 1
vt 0.625 0.625
vt 1 0.625
vt 1 1
vt 0.625 1
vt 0.625 0.625
vt 1 0.625
vt 1 1
vt 0.625 1
vt 0.625 0.625
vt 1 0.625
f 145/145/145 147/147/147 148/148/148
f 145/145/145 146/146/146 147/147/147
f 149/149/149 151/151/151 152/152/152
f 149/149/149 150/150/150 151/151/151
f 153/153/153 155/155/155 156/156/156
f 153/153/153 154/154/154 155/155/155
f 157/157/157 159/159/159 160/160/160
f 157/157/157 158/158/158 159/159/159
f 161/161/161 163/163/163 164/164/164
f 161/161/161 162/162/162 163/163/163
f 165/165/165 167/167/167 168/168/168
f 165/165/165 166/166/166 167/167/167

