# bloc
v 0.4196431 0.7986857 0.3464785
v -0.5691218 0.6537002 0.3828531
v -0.4196431 -0.3053429 0.6234619
v 0.5691218 -0.1603574 0.5870873
v -0.5691218 0.4103574 -0.5870873
v 0.4196431 0.5553429 -0.6234619
v 0.5691218 -0.4037002 -0.3828531
v -0.4196431 -0.5486857 -0.3464785
v 0.4196431 0.5553429 -0.6234619
v 0.4196431 0.7986857 0.3464785
v 0.5691218 -0.1603574 0.5870873
v 0.5691218 -0.4037002 -0.3828531
v 0.5691218 -0.1603574 0.5870873
v -0.4196431 -0.3053429 0.6234619
v -0.4196431 -0.5486857 -0.3464785
v 0.5691218 -0.4037002 -0.3828531
v -0.5691218 0.6537002 0.3828531
v -0.5691218 0.4103574 -0.5870873
v -0.4196431 -0.5486857 -0.3464785
v -0.4196431 -0.3053429 0.6234619
v 0.4196431 0.5553429 -0.6234619
v -0.5691218 0.4103574 -0.5870873
v -0.5691218 0.6537002 0.3828531
v 0.4196431 0.7986857 0.3464785
vn 0 0.2433428 0.9699404
vn 0 0.2433428 0.9699404
vn 0 0.2433428 0.9699404
vn 0 0.2433428 0.9699404
vn 0 -0.2433428 -0.9699404
vn 0 -0.2433428 -0.9699404
vn 0 -0.2433428 -0.9699404
vn 0 -0.2433428 -0.9699404
vn 0.9887649 0.1449855 -0.03637458
vn 0.9887649 0.1449855 -0.03637458
vn 0.9887649 0.1449855 -0.03637458
vn 0.9887649 0.1449855 -0.03637458
vn 0.1494787 -0.959043 0.2406088
vn 0.1494787 -0.959043 0.2406088
vn 0.1494787 -0.959043 0.2406088
vn 0.1494787 -0.959043 0.2406088
vn -0.9887649 -0.1449855 0.03637458
vn -0.9887649 -0.1449855 0.03637458
vn -0.9887649 -0.1449855 0.03637458
vn -0.9887649 -0.1449855 0.03637458
vn -0.1494787 0.959043 -0.2406088
vn -0.1494787 0.959043 -0.2406088
vn -0.1494787 0.959043 -0.2406088
vn -0.1494787 0.959043 -0.2406088
vt 0.5 1
vt 0 1
vt 0 0.5
vt 0.5 0.5
vt 0.5 1
vt 0 1
vt 0 0.5
vt 0.5 0.5
vt 0.5 1
vt 0 1
vt 0 0.5
vt 0.5 0.5
vt 0.5 1
vt 0 1
vt 0 0.5
vt 0.5 0.5
vt 0.5 1
vt 0 1
vt 0 0.5
vt 0.5 0.5
vt 0.5 1
vt 0 1
vt 0 0.5
vt 0.5 0.5
f 1/1/1 3/3/3 4/4/4
f 1/1/1 2/2/2 3/3/3
f 5/5/5 7/7/7 8/8/8
f 5/5/5 6/6/6 7/7/7
f 9/9/9 11/11/11 12/12/12
f 9/9/9 10/10/10 11/11/11
f 13/13/13 15/15/15 16/16/16
f 13/13/13 14/14/14 15/15/15
f 17/17/17 19/19/19 20/20/20
f 17/17/17 18/18/18 19/19/19
f 21/21/21 23/23/23 24/24/24
f 21/21/21 22/22/22 23/23/23

# Block
v 0.8482319 0.1524195 1.117829
v 0.2605537 0.6123775 1.192482
v -0.2038676 0.02441705 1.159085
v 0.3838105 -0.4355409 1.084432
v 0.2098309 0.7089062 0.1984453
v 0.7975091 0.2489483 0.1237923
v 0.3330877 -0.3390121 0.09039483
v -0.2545904 0.1209458 0.1650478
v 0.7975091 0.2489483 0.1237923
v 0.8482319 0.1524195 1.117829
v 0.3838105 -0.4355409 1.084432
v 0.3330877 -0.3390121 0.09039483
v 0.3838105 -0.4355409 1.084432
v -0.2038676 0.02441705 1.159085
v -0.2545904 0.1209458 0.1650478
v 0.3330877 -0.3390121 0.09039483
v 0.2605537 0.6123775 1.192482
v 0.2098309 0.7089062 0.1984453
v -0.2545904 0.1209458 0.1650478
v -0.2038676 0.02441705 1.159085
v 0.7975091 0.2489483 0.1237923
v 0.2098309 0.7089062 0.1984453
v 0.2605537 0.6123775 1.192482
v 0.8482319 0.1524195 1.117829
vn 0.05072281 -0.09652878 0.9940369
vn 0.05072281 -0.09652878 0.9940369
vn 0.05072281 -0.09652878 0.9940369
vn 0.05072281 -0.09652878 0.9940369
vn -0.05072281 0.09652878 -0.9940369
vn -0.05072281 0.09652878 -0.9940369
vn -0.05072281 0.09652878 -0.9940369
vn -0.05072281 0.09652878 -0.9940369
vn 0.7835708 -0.6132773 -0.09953735
vn 0.7835708 -0.6132773 -0.09953735
vn 0.7835708 -0.6132773 -0.09953735
vn 0.7835708 -0.6132773 -0.09953735
vn -0.6192285 -0.7839472 -0.04453
vn -0.6192285 -0.7839472 -0.04453
vn -0.6192285 -0.7839472 -0.04453
vn -0.6192285 -0.7839472 -0.04453
vn -0.7835708 0.6132773 0.09953735
vn -0.7835708 0.6132773 0.09953735
vn -0.7835708 0.6132773 0.09953735
vn -0.7835708 0.6132773 0.09953735
vn 0.6192285 0.7839472 0.04453
vn 0.6192285 0.7839472 0.04453
vn 0.6192285 0.7839472 0.04453
vn 0.6192285 0.7839472 0.04453
vt 0 0.125
vt 0.375 0.125
vt 0.375 0.5
vt 0 0.5
vt 0 0.125
vt 0.375 0.125
vt 0.375 0.5
vt 0 0.5
vt 0.5 0.625
vt 1 0.625
vt 1 1
vt 0.5 1
vt 0.5 1
vt 0.5 0.625
vt 1 0.625
vt 1 1
vt 0.5 0.625
vt 1 0.625
vt 1 1
vt 0.5 1
vt 0.5 1
vt 0.5 0.625
vt 1 0.625
vt 1 1
f 25/25/25 27/27/27 28/28/28
f 25/25/25 26/26/26 27/27/27
f 29/29/29 31/31/31 32/32/32
f 29/29/29 30/30/30 31/31/31
f 33/33/33 35/35/35 36/36/36
f 33/33/33 34/34/34 35/35/35
f 37/37/37 39/39/39 40/40/40
f 37/37/37 38/38/38 39/39/39
f 41/41/41 43/43/43 44/44/44
f 41/41/41 42/42/42 43/43/43
f 45/45/45 47/47/47 48/48/48
f 45/45/45 46/46/46 47/47/47

# Block
v 0.693502 0.9406099 0.03321668
v 0.09273094 0.6318467 -0.2927272
v -0.3475901 0.9306865 0.2357727
v 0.253181 1.23945 0.5617166
v 0.2096666 -0.1877576 0.2681427
v 0.8104377 0.1210057 0.5940865
v 0.3701166 0.4198456 1.122586
v -0.2306544 0.1110823 0.7966426
v 0.8104377 0.1210057 0.5940865
v 0.693502 0.9406099 0.03321668
v 0.253181 1.23945 0.5617166
v 0.3701166 0.4198456 1.122586
v 0.253181 1.23945 0.5617166
v -0.3475901 0.9306865 0.2357727
v -0.2306544 0.1110823 0.7966426
v 0.3701166 0.4198456 1.122586
v 0.09273094 0.6318467 -0.2927272
v 0.2096666 -0.1877576 0.2681427
v -0.2306544 0.1110823 0.7966426
v -0.3475901 0.9306865 0.2357727
v 0.8104377 0.1210057 0.5940865
v 0.2096666 -0.1877576 0.2681427
v 0.09273094 0.6318467 -0.2927272
v 0.693502 0.9406099 0.03321668
vn -0.1169357 0.8196042 -0.5608699
vn -0.1169357 0.8196042 -0.5608699
vn -0.1169357 0.8196042 -0.5608699
vn -0.1169357 0.8196042 -0.5608699
vn 0.1169357 -0.8196042 0.5608699
vn 0.1169357 -0.8196042 0.5608699
vn 0.1169357 -0.8196042 0.5608699
vn 0.1169357 -0.8196042 0.5608699
vn 0.8010281 0.4116844 0.4345919
vn 0.8010281 0.4116844 0.4345919
vn 0.8010281 0.4116844 0.4345919
vn 0.8010281 0.4116844 0.4345919
vn -0.5870947 0.3984532 0.7046666
vn -0.5870947 0.3984532 0.7046666
vn -0.5870947 0.3984532 0.7046666
vn -0.5870947 0.3984532 0.7046666
vn -0.8010281 -0.4116844 -0.4345919
vn -0.8010281 -0.4116844 -0.4345919
vn -0.8010281 -0.4116844 -0.4345919
vn -0.8010281 -0.4116844 -0.4345919
vn 0.5870947 -0.3984532 -0.7046666
vn 0.5870947 -0.3984532 -0.7046666
vn 0.5870947 -0.3984532 -0.7046666
vn 0.5870947 -0.3984532 -0.7046666
vt 0.375 0.5
vt 0 0.5
vt 0 0.125
vt 0.375 0.125
vt 0.375 0.5
vt 0 0.5
vt 0 0.125
vt 0.375 0.125
vt 1 1
vt 0.5 1
vt 0.5 0.625
vt 1 0.625
vt 1 0.625
vt 1 1
vt 0.5 1
vt 0.5 0.625
vt 1 1
vt 0.5 1
vt 0.5 0.625
vt 1 0.625
vt 1 0.625
vt 1 1
vt 0.5 1
vt 0.5 0.625
f 49/49/49 51/51/51 52/52/52
f 49/49/49 50/50/50 51/51/51
f 53/53/53 55/55/55 56/56/56
f 53/53/53 54/54/54 55/55/55
f 57/57/57 59/59/59 60/60/60
f 57/57/57 58/58/58 59/59/59
f 61/61/61 63/63/63 64/64/64
f 61/61/61 62/62/62 63/63/63
f 65/65/65 67/67/67 68/68/68
f 65/65/65 66/66/66 67/67/67
f 69/69/69 71/71/71 72/72/72
f 69/69/69 70/70/70 71/71/71

# Block
v 0.7901817 1.15184 0.09457445
v 0.1938785 1.566932 -0.0914931
v -0.2265438 1.18116 0.3952562
v 0.3697594 0.7660681 0.5813237
v -0.03770567 0.9118619 -0.8106951
v 0.5585975 0.4967698 -0.6246275
v 0.1381752 0.1109977 -0.1378782
v -0.458128 0.5260897 -0.3239458
v 0.5585975 0.4967698 -0.6246275
v 0.7901817 1.15184 0.09457445
v 0.3697594 0.7660681 0.5813237
v 0.1381752 0.1109977 -0.1378782
v 0.3697594 0.7660681 0.5813237
v -0.2265438 1.18116 0.3952562
v -0.458128 0.5260897 -0.3239458
v 0.1381752 0.1109977 -0.1378782
v 0.1938785 1.566932 -0.0914931
v -0.03770567 0.9118619 -0.8106951
v -0.458128 0.5260897 -0.3239458
v -0.2265438 1.18116 0.3952562
v 0.5585975 0.4967698 -0.6246275
v -0.03770567 0.9118619 -0.8106951
v 0.1938785 1.566932 -0.0914931
v 0.7901817 1.15184 0.09457445
vn 0.2315842 0.6550704 0.719202
vn 0.2315842 0.6550704 0.719202
vn 0.2315842 0.6550704 0.719202
vn 0.2315842 0.6550704 0.719202
vn -0.2315842 -0.6550704 -0.719202
vn -0.2315842 -0.6550704 -0.719202
vn -0.2315842 -0.6550704 -0.719202
vn -0.2315842 -0.6550704 -0.719202
vn 0.795071 -0.5534561 0.2480901
vn 0.795071 -0.5534561 0.2480901
vn 0.795071 -0.5534561 0.2480901
vn 0.795071 -0.5534561 0.2480901
vn -0.5605631 -0.5143629 0.6489992
vn -0.5605631 -0.5143629 0.6489992
vn -0.5605631 -0.5143629 0.6489992
vn -0.5605631 -0.5143629 0.6489992
vn -0.795071 0.5534561 -0.2480901
vn -0.795071 0.5534561 -0.2480901
vn -0.795071 0.5534561 -0.2480901
vn -0.795071 0.5534561 -0.2480901
vn 0.5605631 0.5143629 -0.6489992
vn 0.5605631 0.5143629 -0.6489992
vn 0.5605631 0.5143629 -0.6489992
vn 0.5605631 0.5143629 -0.6489992
vt 0.375 0.125
vt 0 0.125
vt 0 0.5
vt 0.375 0.5
vt 0.375 0.125
vt 0 0.125
vt 0 0.5
vt 0.375 0.5
vt 1 0.625
vt 0.5 0.625
vt 0.5 1
vt 1 1
vt 0.5 0.625
vt 0.5 1
vt 1 1
vt 1 0.625
vt 1 0.625
vt 0.5 0.625
vt 0.5 1
vt 1 1
vt 0.5 0.625
vt 0.5 1
vt 1 1
vt 1 0.625
f 73/73/73 75/75/75 76/76/76
f 73/73/73 74/74/74 75/75/75
f 77/77/77 79/79/79 80/80/80
f 77/77/77 78/78/78 79/79/79
f 81/81/81 83/83/83 84/84/84
f 81/81/81 82/82/82 83/83/83
f 85/85/85 87/87/87 88/88/88
f 85/85/85 86/86/86 87/87/87
f 89/89/89 91/91/91 92/92/92
f 89/89/89 90/90/90 91/91/91
f 93/93/93 95/95/95 96/96/96
f 93/93/93 94/94/94 95/95/95

# Block
v 0.4927441 0.8254024 0.2924431
v 0.7224521 1.492196 0.5476311
v 0.06689021 1.583001 0.9004666
v -0.1628177 0.9162077 0.6452787
v 0.3453927 1.93369 -0.266561
v 0.1156847 1.266897 -0.521749
v -0.5398772 1.357702 -0.1689134
v -0.3101692 2.024495 0.08627452
v 0.1156847 1.266897 -0.521749
v 0.4927441 0.8254024 0.2924431
v -0.1628177 0.9162077 0.6452787
v -0.5398772 1.357702 -0.1689134
v -0.1628177 0.9162077 0.6452787
v 0.06689021 1.583001 0.9004666
v -0.3101692 2.024495 0.08627452
v -0.5398772 1.357702 -0.1689134
v 0.7224521 1.492196 0.5476311
v 0.3453927 1.93369 -0.266561
v -0.3101692 2.024495 0.08627452
v 0.06689021 1.583001 0.9004666
v 0.1156847 1.266897 -0.521749
v 0.3453927 1.93369 -0.266561
v 0.7224521 1.492196 0.5476311
v 0.4927441 0.8254024 0.2924431
vn 0.3770595 -0.4414945 0.8141922
vn 0.3770595 -0.4414945 0.8141922
vn 0.3770595 -0.4414945 0.8141922
vn 0.3770595 -0.4414945 0.8141922
vn -0.3770595 0.4414945 -0.8141922
vn -0.3770595 0.4414945 -0.8141922
vn -0.3770595 0.4414945 -0.8141922
vn -0.3770595 0.4414945 -0.8141922
vn -0.3062773 -0.8890578 -0.3402506
vn -0.3062773 -0.8890578 -0.3402506
vn -0.3062773 -0.8890578 -0.3402506
vn -0.3062773 -0.8890578 -0.3402506
vn -0.8740826 0.1210738 0.4704475
vn -0.8740826 0.1210738 0.4704475
vn -0.8740826 0.1210738 0.4704475
vn -0.8740826 0.1210738 0.4704475
vn 0.3062773 0.8890578 0.3402506
vn 0.3062773 0.8890578 0.3402506
vn 0.3062773 0.8890578 0.3402506
vn 0.3062773 0.8890578 0.3402506
vn 0.8740826 -0.1210738 -0.4704475
vn 0.8740826 -0.1210738 -0.4704475
vn 0.8740826 -0.1210738 -0.4704475
vn 0.8740826 -0.1210738 -0.4704475
vt 0 0.5
vt 0.375 0.5
vt 0.375 0.125
vt 0 0.125
vt 0 0.5
vt 0.375 0.5
vt 0.375 0.125
vt 0 0.125
vt 0.5 1
vt 1 1
vt 1 0.625
vt 0.5 0.625
vt 1 1
vt 1 0.625
vt 0.5 0.625
vt 0.5 1
vt 0.5 1
vt 1 1
vt 1 0.625
vt 0.5 0.625
vt 1 1
vt 1 0.625
vt 0.5 0.625
vt 0.5 1
f 97/97/97 99/99/99 100/100/100
f 97/97/97 98/98/98 99/99/99
f 101/101/101 103/103/103 104/104/104
f 101/101/101 102/102/102 103/103/103
f 105/105/105 107/107/107 108/108/108
f 105/105/105 106/106/106 107/107/107
f 109/109/109 111/111/111 112/112/112
f 109/109/109 110/110/110 111/111/111
f 113/113/113 115/115/115 116/116/116
f 113/113/113 114/114/114 115/115/115
f 117/117/117 119/119/119 120/120/120
f 117/117/117 118/118/118 119/119/119

